<svg width="19" height="20" xmlns="http://www.w3.org/2000/svg">

 <g>
  <title>background</title>
  <rect fill="none" id="canvas_background" height="402" width="582" y="-1" x="-1"/>
 </g>
 <g>
  <title>Layer 1</title>
  <path transform="rotate(90 9.500003814697266,9.999505043029787) " id="svg_1" fill="#212121" d="m0,9.99951c0,5.52499 4.36167,9.99999 9.74107,9.99999c4.30463,0 7.95513,-2.865 9.24213,-6.8375c0.0917,-0.5 -0.2098,-0.6833 -0.4684,-0.6833c-0.2313,0 -0.8442,0.0083 -1.6563,0.0125c0.5874,2.7816 -1.3068,3.3683 -1.3068,3.3683c-1.1243,0.455 -1.425,1.1125 -1.425,1.1125c-0.6039,0.9058 -0.5915,-0.07 -0.5915,-0.07c0.0678,-1.0042 1.0037,-1.5317 1.0037,-1.5317c1.4894,-0.8916 1.059,-2.3408 0.8104,-2.9125c-0.6303,-0.09 -1.059,-0.3475 -1.3027,-0.6333c-0.2437,2.2208 -1.0814,4.555 -4.81356,4.555c-1.06316,0 -1.93219,-0.3875 -2.61371,-1.0292c-0.24617,0.1125 -1.23663,0.45 -2.57817,-0.0875c0,0 -0.26104,-0.8375 0.99872,-2.75c-0.21643,-0.8 -0.32382,-1.65 -0.32878,-2.5c0.00496,-0.84996 0.11235,-1.69995 0.32878,-2.49996c-1.25976,-1.89999 -0.99872,-2.73749 -0.99872,-2.73749c1.34154,-0.5375 2.332,-0.20001 2.57817,-0.1c0.68152,-0.6375 1.55055,-1.025 2.61371,-1.025c3.74216,0 4.56566,2.33749 4.80526,4.56249c0.2924,-0.35 0.8897,-0.675 1.8025,-0.675c1.3036,0 2.351,0.0125 2.6674,0.0125c0.2553,0 0.5601,-0.175 0.4626,-0.6875c-1.2788,-4.00083 -4.9317,-6.863329 -9.22973,-6.863329c-5.3794,0.000001 -9.741071,4.477499 -9.74107,9.999999z"/>
 </g>
</svg>