<svg width="20" height="20" xmlns="http://www.w3.org/2000/svg">

 <g>
  <title>background</title>
  <rect fill="none" id="canvas_background" height="402" width="582" y="-1" x="-1"/>
 </g>
 <g>
  <title>Layer 1</title>
  <path transform="rotate(90 10,10.000000000000002) " id="svg_1" fill="black" d="m0,2.92969l0,14.14061c0,1.6153 1.31439,2.9297 2.92969,2.9297l14.14061,0c1.6153,0 2.9297,-1.3144 2.9297,-2.9297l0,-5.8984l-7.0703,0l0,2.3437l-3.51564,0l0,-2.3437l-2.38281,0c-1.93863,0 -3.51563,-1.57702 -3.51563,-3.51565l0,-3.55469l3.51563,0l0,3.55469l2.38281,0l0,-3.55469l3.51564,0.58594l0,2.96875l7.0703,0l0,-4.72656c0,-1.6153 -1.3144,-2.92969 -2.9297,-2.92969l-14.14061,0c-1.6153,0 -2.92969,1.31439 -2.92969,2.92969z"/>
 </g>
</svg>