<svg width="20" height="20" xmlns="http://www.w3.org/2000/svg">

 <g>
  <title>background</title>
  <rect fill="none" id="canvas_background" height="402" width="582" y="-1" x="-1"/>
 </g>
 <g>
  <title>Layer 1</title>
  <path id="svg_1" fill="black" d="m0,6.25l0,7.5c0,3.4512 2.79875,6.25 6.25,6.25l7.5,0c3.4513,0 6.25,-2.7988 6.25,-6.25l0,-7.5c0,-3.45125 -2.7988,-6.25 -6.25,-6.25l-7.5,0c-3.45125,0 -6.25,2.79875 -6.25,6.25zm13.75,-4.375c2.4125,0 4.375,1.9625 4.375,4.375l0,7.5c0,2.4125 -1.9625,4.375 -4.375,4.375l-7.5,0c-2.4125,0 -4.375,-1.9625 -4.375,-4.375l0,-7.5c0,-2.4125 1.9625,-4.375 4.375,-4.375l7.5,0z"/>
  <path id="svg_2" fill="black" d="m5,10c0,2.7612 2.23875,5 5,5c2.7613,0 5,-2.2388 5,-5c0,-2.76125 -2.2388,-5 -5,-5c-2.76125,0 -5,2.23875 -5,5zm8.125,0c0,1.7225 -1.4025,3.125 -3.125,3.125c-1.72375,0 -3.125,-1.4025 -3.125,-3.125c0,-1.7225 1.40125,-3.125 3.125,-3.125c1.7225,0 3.125,1.4025 3.125,3.125z"/>
  <path id="svg_3" fill="black" d="m15.464416,4.625c0,-0.36796 -0.29828,-0.66625 -0.66624,-0.66625c-0.36796,0 -0.66625,0.29829 -0.66625,0.66625c0,0.36796 0.29829,0.66625 0.66625,0.66625c0.36796,0 0.66624,-0.29829 0.66624,-0.66625z"/>
 </g>
</svg>